<svg width="127" height="34" viewBox="0 0 127 34" fill="none" xmlns="http://www.w3.org/2000/svg">
<path d="M15.1523 15.9883V22.8672C14.8711 23.1875 14.4414 23.5312 13.8633 23.8984C13.293 24.2656 12.5625 24.582 11.6719 24.8477C10.7812 25.1055 9.71875 25.2344 8.48438 25.2344C7.36719 25.2344 6.35156 25.0547 5.4375 24.6953C4.52344 24.3281 3.73828 23.793 3.08203 23.0898C2.42578 22.3789 1.91797 21.5117 1.55859 20.4883C1.20703 19.4648 1.03125 18.293 1.03125 16.9727V15.9648C1.03125 14.6445 1.20703 13.4727 1.55859 12.4492C1.91016 11.4258 2.40625 10.5625 3.04688 9.85938C3.6875 9.14844 4.44922 8.60938 5.33203 8.24219C6.21484 7.875 7.19141 7.69141 8.26172 7.69141C9.78516 7.69141 11.0312 7.9375 12 8.42969C12.9688 8.91406 13.7031 9.58594 14.2031 10.4453C14.7109 11.3047 15.0234 12.293 15.1406 13.4102H11.4609C11.3828 12.8398 11.2266 12.3477 10.9922 11.9336C10.7656 11.5195 10.4414 11.2031 10.0195 10.9844C9.59766 10.7578 9.05078 10.6445 8.37891 10.6445C7.83984 10.6445 7.35156 10.7578 6.91406 10.9844C6.48438 11.2031 6.12109 11.5352 5.82422 11.9805C5.52734 12.4258 5.30078 12.9805 5.14453 13.6445C4.98828 14.3008 4.91016 15.0664 4.91016 15.9414V16.9727C4.91016 17.8477 4.98828 18.6172 5.14453 19.2812C5.30859 19.9453 5.54688 20.5 5.85938 20.9453C6.17188 21.3828 6.56641 21.7148 7.04297 21.9414C7.52734 22.168 8.08984 22.2812 8.73047 22.2812C9.23047 22.2812 9.65234 22.2422 9.99609 22.1641C10.3398 22.0781 10.6211 21.9727 10.8398 21.8477C11.0586 21.7148 11.2227 21.5938 11.332 21.4844V18.6484H8.29688V15.9883H15.1523ZM24.293 21.9766V16.5391C24.293 16.1562 24.2344 15.8281 24.1172 15.5547C24 15.2812 23.8164 15.0664 23.5664 14.9102C23.3164 14.7539 22.9922 14.6758 22.5938 14.6758C22.2578 14.6758 21.9648 14.7344 21.7148 14.8516C21.4727 14.9688 21.2852 15.1367 21.1523 15.3555C21.0273 15.5742 20.9648 15.8438 20.9648 16.1641H17.3086C17.3086 15.5938 17.4375 15.0625 17.6953 14.5703C17.9531 14.0781 18.3203 13.6445 18.7969 13.2695C19.2812 12.8945 19.8594 12.6055 20.5312 12.4023C21.2031 12.1914 21.957 12.0859 22.793 12.0859C23.7852 12.0859 24.668 12.2539 25.4414 12.5898C26.2227 12.918 26.8398 13.4141 27.293 14.0781C27.7461 14.7344 27.9727 15.5625 27.9727 16.5625V21.8711C27.9727 22.6367 28.0156 23.2383 28.1016 23.6758C28.1953 24.1055 28.3281 24.4805 28.5 24.8008V25H24.8086C24.6367 24.6328 24.5078 24.1797 24.4219 23.6406C24.3359 23.0938 24.293 22.5391 24.293 21.9766ZM24.75 17.2656L24.7734 19.2812H22.957C22.5508 19.2812 22.1992 19.332 21.9023 19.4336C21.6133 19.5352 21.3789 19.6758 21.1992 19.8555C21.0195 20.0273 20.8867 20.2305 20.8008 20.4648C20.7227 20.6914 20.6836 20.9414 20.6836 21.2148C20.6836 21.4727 20.7461 21.707 20.8711 21.918C20.9961 22.1211 21.168 22.2812 21.3867 22.3984C21.6055 22.5156 21.8594 22.5742 22.1484 22.5742C22.625 22.5742 23.0312 22.4805 23.3672 22.293C23.7109 22.1055 23.9766 21.8789 24.1641 21.6133C24.3516 21.3398 24.4453 21.0859 24.4453 20.8516L25.3242 22.375C25.1836 22.6875 25.0117 23.0117 24.8086 23.3477C24.6055 23.6758 24.3477 23.9844 24.0352 24.2734C23.7227 24.5547 23.3438 24.7852 22.8984 24.9648C22.4609 25.1445 21.9336 25.2344 21.3164 25.2344C20.5195 25.2344 19.7969 25.0742 19.1484 24.7539C18.5 24.4258 17.9805 23.9766 17.5898 23.4062C17.207 22.8359 17.0156 22.1797 17.0156 21.4375C17.0156 20.7734 17.1367 20.1836 17.3789 19.668C17.6211 19.1523 17.9844 18.7148 18.4688 18.3555C18.9609 17.9961 19.5781 17.7266 20.3203 17.5469C21.0625 17.3594 21.9297 17.2656 22.9219 17.2656H24.75ZM34.043 14.9805V25H30.3867V12.3203H33.8203L34.043 14.9805ZM33.5742 18.2148L32.6484 18.2383C32.6484 17.3477 32.7539 16.5312 32.9648 15.7891C33.1836 15.0391 33.5 14.3867 33.9141 13.832C34.3281 13.2773 34.8398 12.8477 35.4492 12.543C36.0664 12.2383 36.7773 12.0859 37.582 12.0859C38.1445 12.0859 38.6562 12.1719 39.1172 12.3438C39.5781 12.5078 39.9727 12.7695 40.3008 13.1289C40.6367 13.4805 40.8945 13.9414 41.0742 14.5117C41.2539 15.0742 41.3438 15.75 41.3438 16.5391V25H37.6875V16.9844C37.6875 16.4219 37.6172 15.9961 37.4766 15.707C37.3438 15.4102 37.1484 15.207 36.8906 15.0977C36.6328 14.9883 36.3242 14.9336 35.9648 14.9336C35.5742 14.9336 35.2266 15.0195 34.9219 15.1914C34.625 15.3555 34.375 15.5859 34.1719 15.8828C33.9688 16.1797 33.8164 16.5273 33.7148 16.9258C33.6211 17.3242 33.5742 17.7539 33.5742 18.2148ZM40.9688 18.0273L39.8086 18.1211C39.8086 17.2617 39.9102 16.4648 40.1133 15.7305C40.3164 14.9961 40.6211 14.3594 41.0273 13.8203C41.4336 13.2734 41.9375 12.8477 42.5391 12.543C43.1484 12.2383 43.8555 12.0859 44.6602 12.0859C45.2539 12.0859 45.793 12.1719 46.2773 12.3438C46.7695 12.5156 47.1914 12.793 47.543 13.1758C47.9023 13.5586 48.1797 14.0625 48.375 14.6875C48.5703 15.3047 48.668 16.0625 48.668 16.9609V25H44.9883V16.9609C44.9883 16.4062 44.918 15.9844 44.7773 15.6953C44.6445 15.4062 44.4492 15.207 44.1914 15.0977C43.9414 14.9883 43.6406 14.9336 43.2891 14.9336C42.8984 14.9336 42.5586 15.0156 42.2695 15.1797C41.9805 15.3359 41.7383 15.5547 41.543 15.8359C41.3477 16.1094 41.2031 16.4336 41.1094 16.8086C41.0156 17.1836 40.9688 17.5898 40.9688 18.0273ZM57.0938 25.2344C56.0859 25.2344 55.1836 25.0742 54.3867 24.7539C53.5898 24.4336 52.9141 23.9922 52.3594 23.4297C51.8125 22.8594 51.3945 22.2031 51.1055 21.4609C50.8164 20.7188 50.6719 19.9258 50.6719 19.082V18.6367C50.6719 17.6914 50.8047 16.8203 51.0703 16.0234C51.3359 15.2266 51.7227 14.5352 52.2305 13.9492C52.7461 13.3555 53.3789 12.8984 54.1289 12.5781C54.8789 12.25 55.7344 12.0859 56.6953 12.0859C57.5938 12.0859 58.3945 12.2344 59.0977 12.5312C59.8008 12.8203 60.3945 13.2383 60.8789 13.7852C61.3633 14.3242 61.7305 14.9766 61.9805 15.7422C62.2383 16.5 62.3672 17.3516 62.3672 18.2969V19.7969H52.1484V17.4414H58.7812V17.1602C58.7812 16.7148 58.6992 16.3242 58.5352 15.9883C58.3789 15.6523 58.1445 15.3945 57.832 15.2148C57.5273 15.0273 57.1406 14.9336 56.6719 14.9336C56.2266 14.9336 55.8555 15.0273 55.5586 15.2148C55.2617 15.4023 55.0234 15.668 54.8438 16.0117C54.6719 16.3477 54.5469 16.7422 54.4688 17.1953C54.3906 17.6406 54.3516 18.1211 54.3516 18.6367V19.082C54.3516 19.5742 54.418 20.0234 54.5508 20.4297C54.6836 20.8359 54.8789 21.1836 55.1367 21.4727C55.3945 21.7617 55.707 21.9883 56.0742 22.1523C56.4414 22.3164 56.8594 22.3984 57.3281 22.3984C57.9062 22.3984 58.457 22.2891 58.9805 22.0703C59.5039 21.8438 59.957 21.4922 60.3398 21.0156L62.0508 22.9727C61.793 23.3477 61.4297 23.7109 60.9609 24.0625C60.5 24.4062 59.9453 24.6875 59.2969 24.9062C58.6484 25.125 57.9141 25.2344 57.0938 25.2344Z" fill="#24292E"/>
<path fill-rule="evenodd" clip-rule="evenodd" d="M73 0C68.5817 0 65 3.58172 65 8V26C65 30.4183 68.5817 34 73 34H119C123.418 34 127 30.4183 127 26V8C127 3.58172 123.418 0 119 0H73ZM86.0117 19.2812H82.2148C82.1758 19.9453 82.0352 20.4961 81.793 20.9336C81.5508 21.3711 81.2031 21.6992 80.75 21.918C80.2969 22.1289 79.7305 22.2344 79.0508 22.2344C78.457 22.2344 77.9531 22.1289 77.5391 21.918C77.125 21.707 76.7852 21.3867 76.5195 20.957C76.2617 20.5273 76.0742 19.9844 75.957 19.3281C75.8398 18.6719 75.7812 17.8945 75.7812 16.9961V15.9297C75.7812 15.0234 75.8477 14.2422 75.9805 13.5859C76.1133 12.9219 76.3125 12.375 76.5781 11.9453C76.8516 11.5156 77.1914 11.1992 77.5977 10.9961C78.0117 10.793 78.4922 10.6914 79.0391 10.6914C79.7891 10.6914 80.3906 10.8086 80.8438 11.043C81.2969 11.2773 81.6328 11.625 81.8516 12.0859C82.0703 12.5391 82.1953 13.0977 82.2266 13.7617H86.0352C85.9258 12.5898 85.5938 11.5469 85.0391 10.6328C84.4922 9.71875 83.7188 9 82.7188 8.47656C81.7188 7.95312 80.4922 7.69141 79.0391 7.69141C77.9609 7.69141 76.9844 7.88281 76.1094 8.26562C75.2344 8.64844 74.4844 9.19922 73.8594 9.91797C73.2344 10.6367 72.7539 11.5039 72.418 12.5195C72.082 13.5352 71.9141 14.6797 71.9141 15.9531V16.9961C71.9141 18.2695 72.0742 19.4141 72.3945 20.4297C72.7227 21.4375 73.1914 22.3008 73.8008 23.0195C74.418 23.7305 75.168 24.2773 76.0508 24.6602C76.9336 25.043 77.9336 25.2344 79.0508 25.2344C80.4492 25.2344 81.6562 24.9844 82.6719 24.4844C83.6875 23.9766 84.4805 23.2773 85.0508 22.3867C85.6289 21.4883 85.9492 20.4531 86.0117 19.2812ZM95.5176 23.6491C95.1388 24.1371 94.6733 24.521 94.1211 24.8008C93.543 25.0898 92.8672 25.2344 92.0938 25.2344C91.4688 25.2344 90.8945 25.1484 90.3711 24.9766C89.8555 24.7969 89.4102 24.5195 89.0352 24.1445C88.6602 23.7617 88.3711 23.2734 88.168 22.6797C87.9648 22.0781 87.8633 21.3594 87.8633 20.5234V12.3203H91.5195V20.5469C91.5195 20.875 91.5586 21.1562 91.6367 21.3906C91.7227 21.6172 91.8359 21.8047 91.9766 21.9531C92.125 22.1016 92.3047 22.2109 92.5156 22.2812C92.7344 22.3516 92.9727 22.3867 93.2305 22.3867C93.8789 22.3867 94.3867 22.2539 94.7539 21.9883C95.0233 21.7918 95.2342 21.549 95.3867 21.2599V12.3203H99.0664V25H95.6211L95.5176 23.6491ZM108.195 21.4727C108.195 21.2383 108.121 21.0312 107.973 20.8516C107.832 20.6719 107.574 20.5078 107.199 20.3594C106.832 20.2109 106.312 20.0625 105.641 19.9141C105.008 19.7812 104.418 19.6094 103.871 19.3984C103.324 19.1797 102.848 18.918 102.441 18.6133C102.035 18.3008 101.719 17.9336 101.492 17.5117C101.266 17.082 101.152 16.5938 101.152 16.0469C101.152 15.5156 101.266 15.0117 101.492 14.5352C101.727 14.0586 102.062 13.6367 102.5 13.2695C102.945 12.9023 103.484 12.6133 104.117 12.4023C104.758 12.1914 105.484 12.0859 106.297 12.0859C107.414 12.0859 108.379 12.2617 109.191 12.6133C110.004 12.957 110.629 13.4414 111.066 14.0664C111.504 14.6836 111.723 15.3906 111.723 16.1875H108.066C108.066 15.8594 108.004 15.5742 107.879 15.332C107.754 15.0898 107.562 14.9023 107.305 14.7695C107.047 14.6289 106.707 14.5586 106.285 14.5586C105.957 14.5586 105.668 14.6172 105.418 14.7344C105.176 14.8438 104.984 14.9961 104.844 15.1914C104.711 15.3867 104.645 15.6133 104.645 15.8711C104.645 16.0508 104.684 16.2148 104.762 16.3633C104.848 16.5039 104.977 16.6367 105.148 16.7617C105.328 16.8789 105.559 16.9844 105.84 17.0781C106.129 17.1719 106.48 17.2617 106.895 17.3477C107.777 17.5117 108.582 17.7422 109.309 18.0391C110.043 18.3359 110.629 18.7461 111.066 19.2695C111.512 19.793 111.734 20.4844 111.734 21.3438C111.734 21.9062 111.605 22.4219 111.348 22.8906C111.098 23.3594 110.734 23.7695 110.258 24.1211C109.781 24.4727 109.211 24.7461 108.547 24.9414C107.883 25.1367 107.133 25.2344 106.297 25.2344C105.102 25.2344 104.09 25.0195 103.262 24.5898C102.434 24.1602 101.809 23.6211 101.387 22.9727C100.973 22.3164 100.766 21.6445 100.766 20.957H104.199C104.215 21.3789 104.32 21.7227 104.516 21.9883C104.719 22.2539 104.98 22.4492 105.301 22.5742C105.621 22.6914 105.98 22.75 106.379 22.75C106.777 22.75 107.109 22.6953 107.375 22.5859C107.641 22.4766 107.844 22.3281 107.984 22.1406C108.125 21.9453 108.195 21.7227 108.195 21.4727ZM120.219 14.8867V12.3203H118.086V9.17969H114.418V12.3203H112.695V14.8867H114.418V21.4375C114.418 22.3359 114.57 23.0664 114.875 23.6289C115.18 24.1836 115.617 24.5898 116.188 24.8477C116.766 25.1055 117.449 25.2344 118.238 25.2344C118.652 25.2344 119.035 25.2031 119.387 25.1406C119.738 25.0859 120.07 25.0078 120.383 24.9062V22.2578C120.25 22.2812 120.105 22.3008 119.949 22.3164C119.793 22.332 119.605 22.3398 119.387 22.3398C119.082 22.3398 118.832 22.3047 118.637 22.2344C118.441 22.1562 118.301 22.0234 118.215 21.8359C118.129 21.6484 118.086 21.3789 118.086 21.0273V14.8867H120.219Z" fill="#24292E"/>
</svg>
