<?xml version="1.0" standalone="no"?>
<!DOCTYPE svg PUBLIC "-//W3C//DTD SVG 20010904//EN"
 "http://www.w3.org/TR/2001/REC-SVG-20010904/DTD/svg10.dtd">
<svg version="1.0" xmlns="http://www.w3.org/2000/svg"
 width="128.000000pt" height="128.000000pt" viewBox="0 0 128.000000 128.000000"
 preserveAspectRatio="xMidYMid meet">
<metadata>
Created by potrace 1.14, written by Peter Selinger 2001-2017
</metadata>
<g transform="translate(0.000000,128.000000) scale(0.100000,-0.100000)"
fill="#000000" stroke="none">
<path d="M661 764 c-18 -23 -21 -41 -21 -124 0 -83 3 -101 21 -124 l20 -26
239 0 239 0 20 26 c18 23 21 41 21 124 0 83 -3 101 -21 124 l-20 26 -239 0
-239 0 -20 -26z m151 -66 c15 -15 18 -23 9 -26 -7 -2 -18 4 -25 13 -7 9 -21
15 -32 13 -16 -3 -19 -12 -19 -53 0 -41 3 -50 19 -53 11 -2 25 4 32 13 19 26
37 14 19 -13 -34 -48 -105 -12 -105 53 0 66 59 96 102 53z m306 -15 c12 -12
13 -18 4 -21 -16 -5 -16 -69 1 -75 6 -2 9 -8 5 -12 -17 -18 -38 6 -38 44 0 22
-5 41 -12 43 -9 3 -8 9 2 21 19 20 18 20 38 0z m-238 -49 c0 -38 3 -45 18 -42
12 2 18 15 20 46 5 61 22 52 22 -11 l0 -54 -32 0 c-46 0 -58 13 -58 63 0 32 4
44 15 44 11 0 15 -12 15 -46z m154 40 c28 -11 17 -24 -14 -17 -35 7 -42 -12
-7 -23 37 -11 48 -24 36 -45 -12 -23 -52 -25 -69 -4 -11 13 -8 14 19 9 41 -8
42 13 1 27 -32 12 -38 27 -18 47 13 13 28 15 52 6z"/>
<path d="M96 698 c-35 -50 -3 -138 50 -138 44 0 64 17 64 55 0 32 -2 35 -30
35 -20 0 -30 -5 -30 -15 0 -8 5 -15 10 -15 6 0 10 -4 10 -10 0 -5 -9 -10 -20
-10 -24 0 -36 40 -20 69 11 21 40 29 40 11 0 -5 9 -10 20 -10 11 0 20 6 20 13
0 41 -88 53 -114 15z"/>
<path d="M253 679 c-23 -8 -32 -39 -12 -39 6 0 3 -7 -5 -16 -19 -18 -19 -20
-6 -44 7 -14 21 -18 55 -18 l45 0 0 48 c0 60 -30 87 -77 69z m37 -73 c0 -11
-19 -15 -25 -6 -3 5 1 10 9 10 9 0 16 -2 16 -4z"/>
<path d="M373 682 l-33 -3 0 -60 c0 -52 2 -59 20 -59 17 0 20 7 20 45 0 33 4
45 15 45 11 0 15 -12 15 -46 0 -38 3 -45 18 -42 12 2 18 15 20 46 4 56 22 54
22 -3 0 -38 3 -45 20 -45 18 0 20 7 20 54 0 30 -5 58 -11 61 -12 8 -79 11
-126 7z"/>
<path d="M552 678 c-45 -22 -37 -101 12 -114 28 -7 70 12 60 27 -3 6 -15 9
-25 6 -10 -3 -22 -1 -25 4 -3 5 9 9 25 9 26 0 31 4 31 24 0 14 -10 32 -22 40
-26 18 -25 18 -56 4z"/>
</g>
</svg>
