<svg width="38" height="24" viewBox="0 0 38 24" fill="none" xmlns="http://www.w3.org/2000/svg">
<path fill-rule="evenodd" clip-rule="evenodd" d="M7.29363 18.2886C6.90212 18.6801 6.90212 19.3149 7.29363 19.7064C7.68374 20.0965 8.31576 20.0981 8.70782 19.7099L15.07 13.4116L16.5847 11.9117L8.70983 4.2076C8.31594 3.82228 7.68532 3.82573 7.29571 4.21535C6.90304 4.60802 6.90304 5.24468 7.29571 5.63732L13.6203 11.9619L7.29363 18.2886Z" fill="#F5D9FF"/>
<path fill-rule="evenodd" clip-rule="evenodd" d="M14.2936 18.2886C13.9021 18.6801 13.9021 19.3149 14.2936 19.7064C14.6837 20.0965 15.3158 20.0981 15.7078 19.7099L22.07 13.4116L23.5847 11.9117L15.7098 4.2076C15.3159 3.82228 14.6853 3.82573 14.2957 4.21535C13.903 4.60802 13.903 5.24468 14.2957 5.63732L20.6203 11.9619L14.2936 18.2886Z" fill="#F5D9FF"/>
<path fill-rule="evenodd" clip-rule="evenodd" d="M21.2936 18.2886C20.9021 18.6801 20.9021 19.3149 21.2936 19.7064C21.6837 20.0965 22.3158 20.0981 22.7078 19.7099L29.07 13.4116L30.5847 11.9117L22.7098 4.2076C22.3159 3.82228 21.6853 3.82573 21.2957 4.21535C20.903 4.60802 20.903 5.24468 21.2957 5.63732L27.6203 11.9619L21.2936 18.2886Z" fill="#F5D9FF"/>
</svg>
