<svg width="16" height="16" viewBox="0 0 16 16" fill="none" xmlns="http://www.w3.org/2000/svg">
<path d="M16 8C16 12.4183 12.4183 16 8 16C3.58172 16 0 12.4183 0 8C0 3.58172 3.58172 0 8 0C12.4183 0 16 3.58172 16 8Z" fill="#7289DA"/>
<path d="M10.7565 4.40002H5.24333C4.77842 4.40002 4.3999 4.76802 4.3999 5.22402V10.632C4.3999 11.088 4.77842 11.456 5.24333 11.456H9.90893L9.69087 10.716L10.2175 11.192L10.7153 11.64L11.5999 12.4V5.22402C11.5999 4.76802 11.2214 4.40002 10.7565 4.40002ZM9.16836 9.62402C9.16836 9.62402 9.02025 9.45202 8.89682 9.30002C9.43579 9.15202 9.6415 8.82402 9.6415 8.82402C9.47282 8.93202 9.31236 9.00802 9.16836 9.06002C8.96265 9.14402 8.76516 9.20002 8.57179 9.23202C8.17682 9.30402 7.81476 9.28402 7.50619 9.22802C7.27167 9.18402 7.07007 9.12002 6.90139 9.05602C6.80676 9.02002 6.7039 8.97602 6.60105 8.92002C6.5887 8.91202 6.57636 8.90802 6.56402 8.90002C6.55579 8.89602 6.55167 8.89202 6.54756 8.88802C6.4735 8.84802 6.43236 8.82002 6.43236 8.82002C6.43236 8.82002 6.62985 9.14002 7.15236 9.29202C7.02893 9.44402 6.8767 9.62402 6.8767 9.62402C5.96745 9.59602 5.62185 9.01602 5.62185 9.01602C5.62185 7.72802 6.2143 6.68402 6.2143 6.68402C6.80676 6.25202 7.37042 6.26402 7.37042 6.26402L7.41156 6.31202C6.67099 6.52002 6.3295 6.83602 6.3295 6.83602C6.3295 6.83602 6.42002 6.78802 6.57225 6.72002C7.01247 6.53202 7.36219 6.48002 7.50619 6.46802C7.53087 6.46402 7.55145 6.46002 7.57613 6.46002C7.8271 6.42802 8.11099 6.42002 8.40722 6.45202C8.79807 6.49602 9.21773 6.60802 9.64562 6.83602C9.64562 6.83602 9.32059 6.53602 8.62116 6.32802L8.67876 6.26402C8.67876 6.26402 9.24242 6.25202 9.83487 6.68402C9.83487 6.68402 10.4273 7.72802 10.4273 9.01602C10.4273 9.01602 10.0776 9.59602 9.16836 9.62402ZM7.25522 7.75602C7.0207 7.75602 6.83556 7.95602 6.83556 8.20002C6.83556 8.44402 7.02482 8.64402 7.25522 8.64402C7.48973 8.64402 7.67487 8.44402 7.67487 8.20002C7.67899 7.95602 7.48973 7.75602 7.25522 7.75602ZM8.75693 7.75602C8.52242 7.75602 8.33727 7.95602 8.33727 8.20002C8.33727 8.44402 8.52653 8.64402 8.75693 8.64402C8.99145 8.64402 9.17659 8.44402 9.17659 8.20002C9.17659 7.95602 8.99145 7.75602 8.75693 7.75602Z" fill="white"/>
</svg>
