<svg width="16" height="16" viewBox="0 0 16 16" fill="none" xmlns="http://www.w3.org/2000/svg">
<path d="M12.6667 2.66668H10.6667V1.33334H9.33333V2.66668H6.66667V1.33334H5.33333V2.66668H3.33333C2.598 2.66668 2 3.26468 2 4.00001V13.3333C2 14.0687 2.598 14.6667 3.33333 14.6667H12.6667C13.402 14.6667 14 14.0687 14 13.3333V4.00001C14 3.26468 13.402 2.66668 12.6667 2.66668ZM3.33333 13.3333V4.66668H12.6667V4.00001L12.668 13.3333H3.33333Z" fill="#9E5BF0"/>
<path d="M4.66675 6H11.3334V7.33333H4.66675V6ZM4.66675 8.66667H8.00008V10H4.66675V8.66667Z" fill="#9E5BF0"/>
</svg>
