<svg width="16" height="16" viewBox="0 0 16 16" fill="none" xmlns="http://www.w3.org/2000/svg">
<path d="M7.99995 0C3.58179 0 0 3.5817 0 7.99986C0 12.4185 3.58179 16 7.99995 16C12.4183 16 16 12.4185 16 7.99986C16 3.5817 12.4183 0 7.99995 0Z" fill="#1ED760"/>
<path d="M11.4931 11.3649C11.3515 11.5971 11.0492 11.6698 10.8178 11.5283C8.96754 10.3974 6.63863 10.1421 3.89591 10.7685C3.63161 10.8291 3.36816 10.6635 3.30794 10.3993C3.24734 10.135 3.41238 9.87157 3.67724 9.81125C6.67871 9.12515 9.25329 9.4204 11.3301 10.6895C11.5617 10.8309 11.6346 11.1334 11.4931 11.3649Z" fill="white"/>
<path d="M12.4571 9.21932C12.2789 9.50846 11.9008 9.59917 11.612 9.42162C9.49464 8.12007 6.26566 7.74296 3.76052 8.50339C3.43572 8.60153 3.09257 8.41843 2.99387 8.0941C2.89602 7.7693 3.07921 7.42682 3.40354 7.32802C6.26529 6.45957 9.82292 6.88015 12.255 8.37477C12.5437 8.5526 12.6346 8.93084 12.4571 9.21932Z" fill="white"/>
<path d="M12.5404 6.98527C10.0006 5.47691 5.81112 5.33822 3.38651 6.0741C2.99707 6.19228 2.58534 5.97248 2.46744 5.58314C2.34945 5.19351 2.56896 4.78206 2.95859 4.66369C5.74196 3.81886 10.3687 3.98201 13.2927 5.71769C13.643 5.92563 13.7578 6.37792 13.5502 6.72755C13.3425 7.07776 12.8898 7.19321 12.5404 6.98527Z" fill="white"/>
</svg>
